<svg aria-hidden="true" xmlns="http://www.w3.org/2000/svg"><defs><symbol id="icon-arrow-left" viewBox="0 0 24 24"><path d="M15.422 16.594L14.016 18l-6-6 6-6 1.406 1.406L10.828 12z"/></symbol><symbol id="icon-arrow-right" viewBox="0 0 24 24"><path d="M8.578 16.594L13.172 12 8.578 7.406 9.984 6l6 6-6 6z"/></symbol><symbol id="icon-lokal" viewBox="0 0 36 36"><path d="M18 0c9.941 0 18 8.059 18 18s-8.059 18-18 18S0 27.941 0 18 8.059 0 18 0z"/><path fill="#3B322D" d="M22.813 14.317c-.052-.196-.158-.404-.237-.587-.939-2.255-2.989-3.064-4.645-3.064-2.217 0-4.658 1.486-4.984 4.55v.626c0 .026.009.261.022.378.183 1.46 1.335 3.012 2.195 4.472.926 1.564 1.886 3.103 2.838 4.641.587-1.004 1.171-2.021 1.745-2.998.156-.287.338-.574.494-.848.104-.182.304-.365.395-.534.926-1.695 2.416-3.403 2.416-5.084v-.691c0-.182-.226-.821-.239-.86zm-4.841 3.142c-.652 0-1.365-.326-1.717-1.226-.052-.143-.048-.43-.048-.457v-.404c0-1.147.974-1.669 1.821-1.669 1.043 0 1.85.834 1.85 1.878s-.863 1.877-1.906 1.877z"/></symbol><symbol id="icon-phone" viewBox="0 0 36 36"><path d="M18 0c9.941 0 18 8.059 18 18s-8.059 18-18 18S0 27.941 0 18 8.059 0 18 0z"/><path fill="#3B322D" d="M23.002 19.842c-.53-.523-1.192-.523-1.718 0-.402.398-.804.797-1.199 1.202-.108.111-.199.135-.331.061-.26-.142-.537-.257-.787-.412-1.165-.733-2.141-1.675-3.005-2.735-.429-.527-.81-1.091-1.077-1.725-.054-.128-.044-.213.061-.317.402-.388.793-.787 1.188-1.185.55-.554.55-1.202-.003-1.759-.314-.317-.628-.628-.942-.945-.324-.324-.645-.652-.972-.972-.53-.517-1.192-.517-1.719.003-.405.398-.793.807-1.205 1.199a1.956 1.956 0 00-.614 1.32c-.064.841.142 1.634.432 2.407.594 1.6 1.499 3.022 2.596 4.325a16.065 16.065 0 005.321 4.163c.932.452 1.897.8 2.947.858.722.041 1.35-.142 1.854-.706.344-.385.733-.736 1.097-1.104.54-.547.544-1.209.007-1.749-.641-.645-1.286-1.286-1.931-1.928z"/></symbol><symbol id="icon-sms" viewBox="0 0 36 36"><path d="M18 0c9.941 0 18 8.059 18 18s-8.059 18-18 18S0 27.941 0 18 8.059 0 18 0z"/><path fill="#3B322D" d="M24.471 21.343a1.6 1.6 0 01-.208.778l-4.086-4.572 4.042-3.536c.157.25.252.543.252.859v6.47zM18 18.38l5.624-4.921a1.603 1.603 0 00-.771-.204h-9.706a1.58 1.58 0 00-.77.204L18 18.38zm1.568-.298l-1.302 1.14a.405.405 0 01-.532 0l-1.302-1.14-4.138 4.63c.248.156.539.249.853.249h9.706c.314 0 .605-.093.853-.249l-4.138-4.63zm-7.787-4.069a1.607 1.607 0 00-.252.859v6.47c0 .284.079.547.208.778l4.086-4.573-4.041-3.535z"/></symbol><symbol id="icon-time" viewBox="0 0 36 36"><path d="M18 0c9.941 0 18 8.059 18 18s-8.059 18-18 18S0 27.941 0 18 8.059 0 18 0z"/><path fill="#3B322D" d="M18 24.722a6.722 6.722 0 100-13.444 6.722 6.722 0 000 13.444zm.611-7.333h2.444v1.222h-3.667v-4.944h1.222v3.722z"/></symbol><symbol id="icon-prev-arrowLeft" viewBox="0 0 20 32"><path d="M6.07 16l11.708 11.708a1.778 1.778 0 01-2.514 2.514L1.042 16 15.264 1.778a1.778 1.778 0 012.514 2.514L6.07 16z"/></symbol><symbol id="icon-prev-arrowRight" viewBox="0 0 20 32"><path d="M13.486 16L1.778 27.708a1.778 1.778 0 002.514 2.514L18.514 16 4.292 1.778a1.778 1.778 0 00-2.514 2.514L13.486 16z"/></symbol><symbol id="icon-check" viewBox="0 0 37 32"><path d="M12.716 22.552L33.421 1.524l3.151 3.2-23.856 24.228L0 16.038l3.151-3.2 9.565 9.714z"/></symbol><symbol id="icon-refresh" viewBox="0 0 32 32"><path d="M16 5.333c3.191 0 5.929 1.438 7.743 4h-5.076V12H28V2.667h-2.667v4.36c-2.3-2.784-5.594-4.36-9.333-4.36C8.636 2.667 2.667 8.637 2.667 16h2.667c0-5.891 4.776-10.667 10.667-10.667zm0 21.334c-3.191 0-5.929-1.438-7.743-4h5.076V20H4v9.333h2.667v-4.36c2.3 2.784 5.594 4.36 9.333 4.36 7.364 0 13.333-5.97 13.333-13.333h-2.667c0 5.891-4.776 10.667-10.667 10.667z"/></symbol></defs></svg>